<svg data-v-6805eed4="" version="1.0" xmlns="http://www.w3.org/2000/svg" xmlns:xlink="http://www.w3.org/1999/xlink" width="100%" height="100%" viewBox="0 0 340.000000 250.000000" preserveAspectRatio="xMidYMid meet" color-interpolation-filters="sRGB" style="margin: auto;">
  <rect data-v-6805eed4="" x="0" y="0" width="100%" height="100%" fill="url(#watermark)" fill-opacity="1" class="watermarklayer"></rect>
  <g data-v-6805eed4="" fill="#333" class="iconlettersvg-g iconlettersvg" transform="translate(52.03215026855469,99.2197723918116)">
    <g>
      <g class="tp-name" transform="translate(0,0)">
        <g transform="scale(1)">
          <g transform="translate(0, 0)">
            <g class="name-imagesvg">
              <g>
                <rect fill="#333" fill-opacity="0" stroke-width="2" x="0" y="0" width="27.553488058756457" height="37.40445600910717" class="image-rect"></rect>
                <svg x="0" y="0" width="27.553488058756457" height="37.40445600910717" filtersec="colorsb7742829363" class="image-svg-svg primary" style="overflow: visible;">
                  <svg xmlns="http://www.w3.org/2000/svg" viewBox="0 0 113.14 153.59">
                    <defs>
                      <filter id="a2e8d13a2-4aa9-4552-bcec-23b699a768c7" x="6.07" y="6.07" width="107.07" height="147.52" filterUnits="userSpaceOnUse" color-interpolation-filters="sRGB">
                        <feFlood flood-color="#fff" result="bg"></feFlood>
                        <feBlend in="SourceGraphic" in2="bg"></feBlend>
                      </filter>
                      <mask id="b18cd947a-cdec-4e78-953c-be2ca0426602" x="6.07" y="6.07" width="107.07" height="147.52" maskUnits="userSpaceOnUse">
                        <path filter="url(#a2e8d13a2-4aa9-4552-bcec-23b699a768c7)" d="M64.75 6.07v59.28L31.72 6.07H6.07v129.51h30.35V76.33l33.05 59.25h25.66V6.07H64.75z" fill="#000000"></path>
                      </mask>
                    </defs>
                    <title>资源 14</title>
                    <g mask="url(#b18cd947a-cdec-4e78-953c-be2ca0426602)">
                      <path fill="#4ce0c3" d="M36.42 135.58H6.07l18.01 18.01h30.35V94.34L36.42 76.33v59.25z"></path>
                      <path fill="#ff5e5e" d="M95.13 6.07v129.51H69.47l18.02 18.01h25.65V24.08L95.13 6.07z"></path>
                      <path fill="#ff5e5e" d="M49.73 24.08L31.72 6.07l33.03 59.28 18.01 18.01-33.03-59.28z"></path>
                    </g>
                    <path fill="#333" d="M58.68 0v59.28L25.65 0H0v129.51h30.35V70.26l33.05 59.25h25.66V0H58.68z"></path>
                  </svg>
                </svg>
                <!---->
              </g>
            </g>
          </g>
          <g transform="translate(27.553488058756457, 0)">
            <g class="name-imagesvg">
              <g>
                <rect fill="#333" fill-opacity="0" stroke-width="2" x="0" y="0" width="33.45439715038492" height="37.40445600910717" class="image-rect"></rect>
                <svg x="0" y="0" width="33.45439715038492" height="37.40445600910717" filtersec="colorsb4492830039" class="image-svg-svg primary" style="overflow: visible;">
                  <svg xmlns="http://www.w3.org/2000/svg" viewBox="0 0 139.66 156.16">
                    <defs>
                      <filter id="a30bf86f4-3274-46f5-a591-cd790e7d9035" x="6.07" y="6.07" width="133.59" height="150.09" filterUnits="userSpaceOnUse" color-interpolation-filters="sRGB">
                        <feFlood flood-color="#fff" result="bg"></feFlood>
                        <feBlend in="SourceGraphic" in2="bg"></feBlend>
                      </filter>
                      <mask id="b49d072b6-2f7f-4d5a-a888-b8db43aab7de" x="6.07" y="6.07" width="133.59" height="150.09" maskUnits="userSpaceOnUse">
                        <path d="M106.93 26.78C102 20.47 88.62 6.07 63.88 6.07s-38.19 14.4-43.09 20.71C11.29 39 6.07 55.13 6.07 72.1s5.22 33.08 14.72 45.34c4.89 6.31 18.31 20.71 43.08 20.71s38.17-14.4 43.06-20.71c9.5-12.26 14.72-28.38 14.72-45.34s-5.22-33.1-14.72-45.32zm-43.06 82.47c-16.52 0-22.07-18.69-22.07-37.15s5.55-37.16 22.07-37.16S85.92 53.66 85.92 72.1s-5.55 37.15-22.05 37.15z" filter="url(#a30bf86f4-3274-46f5-a591-cd790e7d9035)" fill="#000000"></path>
                      </mask>
                    </defs>
                    <title>资源 15</title>
                    <g mask="url(#b49d072b6-2f7f-4d5a-a888-b8db43aab7de)">
                      <path d="M76.53 40.08a17 17 0 0 0-7.18-4.36 15.43 15.43 0 0 0-1.72-.42 19.58 19.58 0 0 0-3.76-.36 19 19 0 0 0-2.65.2l-.6.08a18.25 18.25 0 0 0-2.4.56l-.18.06a16.28 16.28 0 0 0-2 .84l-.5.24a18.74 18.74 0 0 0-2 1.19l-.26.21a18.06 18.06 0 0 0-1.59 1.33l-.39.36-.27.26c-.28.28-.55.57-.81.88s-.32.37-.48.57a.86.86 0 0 0-.07.1l-.34.44-.41.57c-.12.16-.23.33-.34.49l-.34.51-.12.19v.06c-.06.09-.12.18-.17.27s-.2.33-.29.5-.19.32-.28.49l-.27.49c-.09.17-.18.34-.26.51s-.07.13-.1.19v.05c-.05.09-.09.18-.13.27s-.17.34-.25.52l-.23.52c-.08.18-.15.35-.23.53l-.22.54-.12.29a.08.08 0 0 1 0 .05c0 .07 0 .15-.08.22l-.21.56-.21.57c-.07.2-.13.4-.2.59l-.2.62-.09.3v.06c0 .09-.06.18-.08.26s-.13.42-.19.63l-.18.66-.18.69c-.06.23-.12.46-.17.7a.19.19 0 0 0 0 .08v.05c-.05.19-.09.38-.14.57s-.11.5-.16.76-.11.51-.16.77l-.15.77V58.51c0 .16-.06.32-.08.47s-.1.57-.14.86-.09.57-.13.86-.09.6-.12.9a.59.59 0 0 0 0 .13v.1l-.09.71c0 .31-.07.63-.1.94s-.07.67-.1 1 0 .4-.05.6v.43c0 .34 0 .69-.07 1l-.06 1.12v9a.57.57 0 0 1 0 .13v.28c0 .37.05.75.08 1.12s0 .74.08 1.1.07.73.1 1.09.07.65.11 1c0 .34.08.69.13 1s.09.66.13 1l.15 1c.05.32.1.64.16 1 0 .15 0 .31.08.46s0 .07 0 .1 0 .24.07.36c.05.3.11.6.17.9s.13.6.2.89.13.58.2.86.13.57.21.84l.09.37v.09c0 .13.06.25.1.38s.15.54.23.81.16.54.25.8.17.53.25.79.19.53.28.79.09.26.14.38v.08l.12.32.3.77c.11.27.23.54.35.8s.23.53.35.79.26.55.4.81l.07.15a.16.16 0 0 1 0 .07l.36.68c.16.3.33.59.5.87.25.43.51.85.79 1.25.06.1.14.19.21.29l.3.4a21.8 21.8 0 0 0 2.16 2.59l18 18a21.69 21.69 0 0 1-2.35-2.5l-.3-.41a28.42 28.42 0 0 1-1.83-3.13.25.25 0 0 0 0-.07 37.67 37.67 0 0 1-1.59-3.64v-.07c-.47-1.27-.89-2.59-1.25-4v-.09c-.36-1.37-.67-2.77-.94-4.21a.3.3 0 0 0 0-.1c-.26-1.46-.48-2.94-.65-4.45-.17-1.51-.3-3-.38-4.57a.57.57 0 0 0 0-.13c-.08-1.53-.12-3.08-.12-4.62 0-1.14 0-2.27.07-3.4v-.14c0-1.1.11-2.2.2-3.29v-.13c.09-1.1.2-2.19.34-3.26v-.09c.14-1.09.3-2.17.49-3.23v-.08c.19-1.06.4-2.11.65-3.13.25-1 .52-2 .82-3v-.06q.45-1.47 1-2.85v-.06c.37-.92.76-1.81 1.18-2.66v-.06c.43-.85.88-1.66 1.37-2.44v-.07c.49-.77 1-1.5 1.55-2.19v-.06A18.85 18.85 0 0 1 69.3 58l.38-.36a16.84 16.84 0 0 1 1.6-1.33l.25-.2a17.26 17.26 0 0 1 2-1.2l.5-.24a16 16 0 0 1 2-.83l.18-.07a16.77 16.77 0 0 1 2.4-.55 6 6 0 0 1 .61-.09 18.89 18.89 0 0 1 2.67-.13 19.57 19.57 0 0 1 3.75.35 16.17 16.17 0 0 1 1.73.42 17.11 17.11 0 0 1 7.18 4.36z" fill="#4ce0c3"></path>
                      <path d="M139.66 89.84v-1.11-1.11-1.12c0-.37 0-.75-.05-1.12s-.05-.75-.08-1.13v-.41a.34.34 0 0 0 0-.1v-.61c0-.38-.07-.76-.11-1.14l-.12-1.14c0-.39-.09-.77-.14-1.15s-.1-.78-.16-1.16-.09-.6-.14-.9v-.26a49.022 49.022 0 0 0-.41-2.37L138 73.8c-.08-.4-.17-.81-.26-1.21s-.15-.67-.23-1v-.06a1 1 0 0 0 0-.17c-.1-.41-.2-.83-.31-1.24s-.22-.86-.34-1.28-.24-.86-.37-1.29-.27-.89-.41-1.33c0-.15-.1-.3-.14-.45a.88.88 0 0 1 0-.15c-.09-.25-.17-.51-.25-.76l-.48-1.37-.64-1.49c-.19-.5-.39-1-.59-1.49l-.18-.4-.07-.18c-.14-.32-.27-.65-.41-1-.24-.56-.5-1.11-.76-1.66s-.56-1.2-.86-1.78c-.12-.24-.25-.47-.37-.7l-.18-.36c-.16-.3-.31-.6-.47-.89-.41-.75-.83-1.49-1.27-2.23-.28-.46-.58-.92-.87-1.38-.14-.23-.28-.46-.43-.69l-.41-.66q-1.31-2-2.75-3.83a55.72 55.72 0 0 0-4.5-5.11l-18-18a53.3 53.3 0 0 1 4.51 5.11q1.66 2.16 3.16 4.49l.43.69q1.38 2.19 2.6 4.5l.19.35c.86 1.67 1.66 3.37 2.4 5.12 0 .06 0 .12.07.17q1.13 2.69 2 5.49v.15c.61 1.88 1.16 3.81 1.62 5.76v.06q.69 3 1.17 6v.07c.31 2 .55 4.05.71 6.11v.1q.24 3.11.24 6.26 0 3.18-.24 6.3-.24 3.12-.72 6.17c-.31 2-.71 4-1.17 6v.06q-.7 3-1.62 5.8v.09c-.62 1.89-1.31 3.75-2.06 5.56v.06q-1.14 2.73-2.49 5.32a.41.41 0 0 1-.05.09c-.9 1.73-1.87 3.42-2.91 5q-1.57 2.46-3.35 4.75c-.21.28-.47.59-.72.9s-.47.57-.72.86l-.52.62c-.43.49-.9 1-1.4 1.54l-.25.27-.27.28q-.59.6-1.23 1.23l-.55.52-1.15 1-.66.58-1.29 1.07-.67.54c-.6.47-1.24.94-1.9 1.41l-.23.17c-.74.52-1.51 1-2.32 1.54-.23.15-.49.29-.73.44-.59.36-1.18.71-1.8 1.05l-1 .5c-.6.32-1.21.62-1.84.92l-1 .47c-.72.33-1.47.63-2.22.93l-.79.32c-1 .39-2.1.75-3.21 1.09-.24.07-.5.13-.75.21q-1.31.38-2.67.69l-1.23.27c-.81.16-1.63.32-2.47.45-.45.08-.9.15-1.36.21-.88.12-1.78.21-2.7.3L68 138c-1.35.09-2.73.15-4.16.15a59.74 59.74 0 0 1-10.14-.85 52.51 52.51 0 0 1-16.14-5.56q-2.25-1.22-4.2-2.54c-1.31-.87-2.53-1.77-3.65-2.67s-2.15-1.8-3.1-2.68c-.47-.44-.92-.87-1.34-1.3l18 18c.42.43.87.86 1.35 1.3.94.88 2 1.78 3.09 2.68s2.34 1.8 3.65 2.67 2.7 1.73 4.2 2.54a52.6 52.6 0 0 0 16.14 5.56 59.77 59.77 0 0 0 10.15.85c1.42 0 2.8-.06 4.15-.15l1.27-.11q1.38-.12 2.7-.3c.46-.06.91-.13 1.36-.21.84-.13 1.66-.28 2.47-.45l1.23-.26c.91-.22 1.8-.45 2.67-.7l.76-.21c1.1-.34 2.17-.7 3.2-1.09l.78-.31c.76-.3 1.51-.61 2.23-.94.35-.15.67-.31 1-.47.63-.3 1.24-.6 1.84-.92l1-.5q.93-.51 1.8-1c.25-.15.5-.29.73-.44.81-.5 1.59-1 2.33-1.54l.21-.15c.67-.48 1.3-1 1.92-1.43l.66-.53c.44-.37.88-.72 1.3-1.08l.65-.58c.4-.35.79-.71 1.16-1.06l.54-.51c.44-.42.85-.84 1.24-1.24l.26-.26.21-.24c.5-.53 1-1 1.39-1.53l.17-.18c.13-.16.23-.29.36-.43.25-.3.49-.59.71-.87a2.41 2.41 0 0 0 .21-.24l.52-.66.57-.74c.36-.48.71-1 1.06-1.45s.63-.9.93-1.36.53-.8.79-1.2l.78-1.25.71-1.2.66-1.17c.21-.38.42-.77.62-1.16l.12-.22v-.09l.42-.81.55-1.11.51-1.09c.17-.36.33-.72.49-1.09s.31-.71.46-1.06l.06-.15v-.07c.12-.28.24-.57.35-.85s.28-.7.41-1 .27-.7.4-1.06.25-.69.37-1l.36-1c.06-.17.11-.35.17-.52v-.09c0-.14.09-.29.14-.43.11-.34.21-.69.32-1l.3-1c.1-.34.19-.68.29-1l.27-1c.09-.35.17-.69.25-1a1.6 1.6 0 0 0 .05-.21v-.06l.18-.76c.07-.35.15-.69.22-1s.15-.69.21-1 .14-.69.2-1 .13-.69.19-1 .11-.69.17-1v-.08c.05-.32.1-.64.14-1l.15-1.05c0-.35.09-.7.13-1s.08-.71.11-1.06.07-.7.11-1.06 0-.66.08-1v-.08c0-.35.06-.71.08-1.07l.06-1.07c0-.36 0-.73.05-1.09v-1.09V90.78z" fill="#37db5a"></path>
                    </g>
                    <path d="M100.86 20.71C96 14.4 82.55 0 57.8 0S19.61 14.4 14.72 20.71C5.22 33 0 49.06 0 66s5.22 33.08 14.72 45.34c4.89 6.31 18.31 20.71 43.08 20.71s38.17-14.4 43.06-20.71C110.36 99.11 115.58 83 115.58 66s-5.22-33-14.72-45.29zM57.8 103.18c-16.52 0-22.07-18.69-22.07-37.15s5.55-37.16 22.07-37.16 22 18.72 22 37.16-5.5 37.15-22 37.15z" fill="#333"></path>
                  </svg>
                </svg>
                <!---->
              </g>
            </g>
          </g>
          <g transform="translate(61.00788520914138, 0)">
            <g class="name-imagesvg">
              <g>
                <rect fill="#333" fill-opacity="0" stroke-width="2" x="0" y="0" width="27.054241683365444" height="37.40445600910717" class="image-rect"></rect>
                <svg x="0" y="0" width="27.054241683365444" height="37.40445600910717" filtersec="colorsb4197675155" class="image-svg-svg primary" style="overflow: visible;">
                  <svg xmlns="http://www.w3.org/2000/svg" viewBox="0 0 111.09 153.59">
                    <defs>
                      <filter id="a2c2e69da-4895-4fb6-9390-22081cd8de57" x="6.07" y="6.07" width="105.02" height="147.52" filterUnits="userSpaceOnUse" color-interpolation-filters="sRGB">
                        <feFlood flood-color="#fff" result="bg"></feFlood>
                        <feBlend in="SourceGraphic" in2="bg"></feBlend>
                      </filter>
                      <mask id="b1ce5507b-e9d6-495b-9c5c-0cd9bb763f9e" x="6.07" y="6.07" width="105.02" height="147.52" maskUnits="userSpaceOnUse">
                        <path filter="url(#a2c2e69da-4895-4fb6-9390-22081cd8de57)" d="M6.07 6.07V34.4H34.4v101.18h30.35V34.4h28.33V6.07H6.07z" fill="#000000"></path>
                      </mask>
                    </defs>
                    <title>资源 20</title>
                    <g mask="url(#b1ce5507b-e9d6-495b-9c5c-0cd9bb763f9e)">
                      <path fill="#bc47ff" d="M34.4 34.4H6.07l18.01 18.01h28.33L34.4 34.4z"></path>
                      <path fill="#37db5a" d="M93.08 6.07V34.4H64.75v101.18H34.4l18.01 18.01h30.35V52.41h28.33V24.08L93.08 6.07z"></path>
                    </g>
                    <path fill="#333" d="M0 0v28.33h28.33v101.18h30.35V28.33h28.33V0H0z"></path>
                  </svg>
                </svg>
                <!---->
              </g>
            </g>
          </g>
          <g transform="translate(88.06212689250683, 0)">
            <g class="name-imagesvg">
              <g>
                <rect fill="#333" fill-opacity="0" stroke-width="2" x="0" y="0" width="24.592110055491336" height="37.40445600910717" class="image-rect"></rect>
                <svg x="0" y="0" width="24.592110055491336" height="37.40445600910717" filtersec="colorsb7308202802" class="image-svg-svg primary" style="overflow: visible;">
                  <svg xmlns="http://www.w3.org/2000/svg" viewBox="0 0 100.98 153.59">
                    <defs>
                      <filter id="a4e73bee6-e258-4aa5-aeac-94ec47bf9ac1" x="6.07" y="6.07" width="94.91" height="147.52" filterUnits="userSpaceOnUse" color-interpolation-filters="sRGB">
                        <feFlood flood-color="#fff" result="bg"></feFlood>
                        <feBlend in="SourceGraphic" in2="bg"></feBlend>
                      </filter>
                      <mask id="b6336864e-0bd9-4ddb-9853-3abd7ff9c3c4" x="6.07" y="6.07" width="94.91" height="147.52" maskUnits="userSpaceOnUse">
                        <path filter="url(#a4e73bee6-e258-4aa5-aeac-94ec47bf9ac1)" d="M82.97 34.4V6.07H6.07v129.51h76.9v-28.33H36.42V84.99h46.55V56.66H36.42V34.4h46.55z" fill="#000000"></path>
                      </mask>
                    </defs>
                    <title>资源 5</title>
                    <g mask="url(#b6336864e-0bd9-4ddb-9853-3abd7ff9c3c4)">
                      <path fill="#ff5e5e" d="M82.97 6.07V34.4H36.42v22.26l18.01 18.01V52.41h46.55V24.08L82.97 6.07z"></path>
                      <path fill="#bc47ff" d="M82.97 56.66v28.33H36.42v22.26l18.01 18.02V103h46.55V74.67L82.97 56.66z"></path>
                      <path fill="#ff5e5e" d="M82.97 107.25v28.33H6.07l18.01 18.01h76.9v-28.32l-18.01-18.02z"></path>
                    </g>
                    <path fill="#333" d="M76.9 28.33V0H0v129.51h76.9v-28.33H30.35V78.92H76.9V50.59H30.35V28.33H76.9z"></path>
                  </svg>
                </svg>
                <!---->
              </g>
            </g>
          </g>
          <g transform="translate(112.65423694799816, 0)">
            <g class="name-imagesvg">
              <g>
                <rect fill="#333" fill-opacity="0" stroke-width="2" x="0" y="0" width="27.05599422454991" height="37.40445600910717" class="image-rect"></rect>
                <svg x="0" y="0" width="27.05599422454991" height="37.40445600910717" filtersec="colorsb7219837875" class="image-svg-svg primary" style="overflow: visible;">
                  <svg xmlns="http://www.w3.org/2000/svg" viewBox="0 0 111.09 153.59">
                    <defs>
                      <filter id="ae4d086a5-6e30-4259-a6b1-8e342042315a" x="6.07" y="6.07" width="105.02" height="147.52" filterUnits="userSpaceOnUse" color-interpolation-filters="sRGB">
                        <feFlood flood-color="#fff" result="bg"></feFlood>
                        <feBlend in="SourceGraphic" in2="bg"></feBlend>
                      </filter>
                      <mask id="bb4a5b77b-12f1-4718-8ab8-13fb15555358" x="6.07" y="6.07" width="105.02" height="147.52" maskUnits="userSpaceOnUse">
                        <path d="M79.58 67.67A36 36 0 0 0 87 45.54a36.54 36.54 0 0 0-14.93-29.61c-8.36-6.36-19.59-9.86-31.61-9.86H6.07v129.51h40.46c12 0 23.24-3.49 31.6-9.86a36.75 36.75 0 0 0 1.45-58zM36.42 34.45c8.33.55 16.2 4.32 16.2 11.09s-7.87 10.52-16.2 11.07zm4 72.8h-4V85h4c9 0 18.22 3.83 18.22 11.12s-9.13 11.13-18.18 11.13z" filter="url(#ae4d086a5-6e30-4259-a6b1-8e342042315a)" fill="#000000"></path>
                      </mask>
                    </defs>
                    <title>资源 2</title>
                    <g mask="url(#bb4a5b77b-12f1-4718-8ab8-13fb15555358)">
                      <path d="M50 39.51c-3-3-8.2-4.7-13.59-5.06v22.16l18 18V52.46c5.4.36 10.6 2.06 13.59 5.06z" fill="#00bbfa"></path>
                      <path d="M56.08 90.09C52.71 86.73 46.56 85 40.46 85h-4v22.26l18 18V103h4c6.09 0 12.25 1.74 15.61 5.11zM105 63.43v-.53-.52-1.58-.52-.39a.45.45 0 0 1 0-.11l-.06-.54c0-.17 0-.35-.07-.53s0-.36-.07-.53 0-.37-.08-.55l-.09-.55c0-.18-.07-.36-.1-.55a1.29 1.29 0 0 1 0-.19v-.05a3 3 0 0 0-.07-.32c0-.19-.08-.38-.12-.57s-.08-.38-.13-.57l-.15-.6c0-.2-.1-.39-.16-.59s-.11-.41-.18-.62v-.16c0-.15-.08-.29-.13-.43l-.21-.64-.24-.69c-.08-.23-.17-.46-.26-.69s-.19-.5-.29-.75a1.17 1.17 0 0 1 0-.11l-.26-.6a23.255 23.255 0 0 0-.81-1.72c-.15-.29-.27-.53-.41-.79l-.06-.11-.07-.15c-.22-.4-.45-.8-.69-1.19s-.63-1-1-1.54v-.07c-.45-.67-1-1.32-1.46-2-.24-.32-.46-.65-.71-1-.78-.94-1.61-1.86-2.5-2.75l-18-18c.88.89 1.71 1.8 2.49 2.75.27.32.49.66.74 1 .49.64 1 1.28 1.44 1.95.64 1 1.24 1.94 1.78 2.95l.06.1c.54 1 1 2.06 1.48 3.12a34.21 34.21 0 0 1 1.18 3.31c.34 1.12.63 2.27.86 3.43a35.06 35.06 0 0 1 .51 3.56c.11 1.21.17 2.44.17 3.67 0 1 0 2-.12 3a36.659 36.659 0 0 1-.95 5.83c-.23.94-.51 1.87-.81 2.79-.31.92-.65 1.82-1 2.7-.38.88-.8 1.75-1.25 2.6-.45.85-.93 1.68-1.46 2.49v.06c-.53.82-1.09 1.62-1.69 2.4l18 18 .17-.22c.21-.28.42-.56.62-.85s.36-.51.53-.77.25-.37.37-.56a.21.21 0 0 1 0-.06l.06-.1c.15-.22.29-.45.43-.68l.39-.66.35-.62c.07-.14.15-.28.23-.42v-.06a.83.83 0 0 1 .07-.13l.3-.58.28-.57c.09-.19.18-.37.26-.56s.17-.36.25-.55l.09-.21.12-.27.21-.53.21-.52.19-.51.18-.5c0-.12.08-.24.13-.37v-.11c.06-.16.11-.33.16-.49s.11-.33.16-.5.09-.32.14-.48.09-.33.14-.49l.12-.48.06-.24a1.94 1.94 0 0 0 0-.2l.12-.49c0-.16.07-.32.1-.48s.07-.32.1-.48l.09-.48c0-.16.06-.31.09-.48s0-.17 0-.26v-.18c0-.06.05-.32.08-.48l.06-.48.06-.49.06-.48v-.84a.49.49 0 0 0 0-.12v-1-.5-.51-1.03z" fill="#ff5e5e"></path>
                      <path d="M111.09 114v-.52-.52-.52-.52-.53-.52-.41-.1l-.06-.53-.06-.52c0-.18 0-.36-.07-.54l-.09-.54c0-.18-.05-.36-.08-.54s-.07-.38-.11-.56 0-.15 0-.22l-.06-.29-.12-.56c0-.19-.09-.39-.13-.58l-.15-.59c0-.19-.1-.39-.16-.59l-.18-.62-.06-.19-.12-.38-.21-.66-.24-.67c-.08-.23-.17-.47-.26-.7s-.19-.49-.29-.73l-.06-.15v-.08l-.24-.56-.37-.82-.45-.92c-.14-.28-.28-.55-.43-.81v-.09l-.06-.11c-.22-.39-.44-.78-.67-1.17s-.64-1-1-1.55l-.06-.1c-.45-.67-1-1.31-1.46-2-.25-.32-.47-.66-.73-1-.77-.94-1.59-1.84-2.46-2.71v-.06l-18-18C83.18 71 84 72 84.79 72.9c.27.32.49.66.74 1 .5.64 1 1.29 1.45 2 .64 1 1.24 1.93 1.78 2.93a.3.3 0 0 0 0 .08c.55 1 1 2.06 1.49 3.12v.07c.44 1.08.84 2.18 1.18 3.3v.05c.34 1.12.63 2.26.86 3.42v.05c.23 1.16.4 2.35.52 3.55.12 1.21.18 2.43.18 3.67a38.77 38.77 0 0 1-.25 4.34 36.31 36.31 0 0 1-.73 4.19 34.45 34.45 0 0 1-1.2 4 35.51 35.51 0 0 1-1.67 3.85 37.25 37.25 0 0 1-2.1 3.61v.07a37.29 37.29 0 0 1-2.47 3.3l-.14.16a36 36 0 0 1-2.43 2.69c-.26.26-.53.53-.8.78-1 .9-2 1.77-3.06 2.59-8.36 6.37-19.56 9.86-31.6 9.86H6.07l18 18h40.47c12 0 23.25-3.49 31.61-9.86 1.07-.82 2.08-1.69 3-2.59l.81-.78c.31-.3.64-.59.94-.91s.85-.91 1.26-1.38l.27-.32c0-.06.09-.12.14-.17l.49-.59c.25-.31.49-.62.73-.94l.61-.84.53-.76.11-.17a.43.43 0 0 0 0-.07c.11-.16.22-.32.32-.49s.28-.44.42-.67l.39-.65c.12-.21.23-.42.35-.62s.22-.4.32-.6l.3-.58c.09-.19.19-.37.27-.56l.27-.55c.08-.19.17-.37.25-.55s.15-.35.22-.53.15-.35.22-.53l.21-.52c.06-.17.12-.34.19-.51v-.09c0-.13.09-.26.14-.39s.11-.34.17-.51.11-.33.16-.49l.15-.49.15-.5c0-.16.09-.32.13-.48s.09-.32.13-.48l.12-.49v-.19l.06-.26c0-.16.08-.32.11-.48s.07-.32.1-.49l.09-.48.09-.48c0-.16 0-.32.08-.48s0-.33.07-.49l.06-.48a4.36 4.36 0 0 0 .06-.49v-.06-.42-.5-1.5-.5-.52-1.1z" fill="#00bbfa"></path>
                    </g>
                    <path d="M85 78.06a36.07 36.07 0 0 0-5.7-10.52 40 40 0 0 0-5.79-5.94A36.88 36.88 0 0 0 78 54a37 37 0 0 0-3-34.64 38.33 38.33 0 0 0-5.56-6.59A41.87 41.87 0 0 0 66 9.86a45.43 45.43 0 0 0-10.5-5.92 53.57 53.57 0 0 0-8-2.5c-1.39-.31-2.81-.58-4.24-.79A59.82 59.82 0 0 0 34.39 0H0v129.51h40.46a59.14 59.14 0 0 0 13.09-1.44 49.71 49.71 0 0 0 15.25-6.17 39.22 39.22 0 0 0 3.26-2.25A36.91 36.91 0 0 0 85 78.06zM37.8 29.83a21.82 21.82 0 0 1 2.6 1.1 15.27 15.27 0 0 1 2.25 1.4 8.8 8.8 0 0 1 3.9 7.14A8 8 0 0 1 45.19 44c-2.19 3.25-6.69 5.34-11.75 6.18-1 .17-2 .29-3.09.36V28.38a28.87 28.87 0 0 1 7.45 1.45zm-3.41 71.35h-4V78.92h4a27 27 0 0 1 12.5 2.82c3.43 1.87 5.72 4.65 5.72 8.3 0 7.32-9.18 11.14-18.22 11.14z" fill="#333"></path>
                  </svg>
                </svg>
                <!---->
              </g>
            </g>
          </g>
          <g transform="translate(139.71023117254808, 0)">
            <g class="name-imagesvg">
              <g>
                <rect fill="#333" fill-opacity="0" stroke-width="2" x="0" y="0" width="33.45439715038492" height="37.40445600910717" class="image-rect"></rect>
                <svg x="0" y="0" width="33.45439715038492" height="37.40445600910717" filtersec="colorsb6909993120" class="image-svg-svg primary" style="overflow: visible;">
                  <svg xmlns="http://www.w3.org/2000/svg" viewBox="0 0 139.66 156.16">
                    <defs>
                      <filter id="a30bf86f4-3274-46f5-a591-cd790e7d9035" x="6.07" y="6.07" width="133.59" height="150.09" filterUnits="userSpaceOnUse" color-interpolation-filters="sRGB">
                        <feFlood flood-color="#fff" result="bg"></feFlood>
                        <feBlend in="SourceGraphic" in2="bg"></feBlend>
                      </filter>
                      <mask id="b49d072b6-2f7f-4d5a-a888-b8db43aab7de" x="6.07" y="6.07" width="133.59" height="150.09" maskUnits="userSpaceOnUse">
                        <path d="M106.93 26.78C102 20.47 88.62 6.07 63.88 6.07s-38.19 14.4-43.09 20.71C11.29 39 6.07 55.13 6.07 72.1s5.22 33.08 14.72 45.34c4.89 6.31 18.31 20.71 43.08 20.71s38.17-14.4 43.06-20.71c9.5-12.26 14.72-28.38 14.72-45.34s-5.22-33.1-14.72-45.32zm-43.06 82.47c-16.52 0-22.07-18.69-22.07-37.15s5.55-37.16 22.07-37.16S85.92 53.66 85.92 72.1s-5.55 37.15-22.05 37.15z" filter="url(#a30bf86f4-3274-46f5-a591-cd790e7d9035)" fill="#000000"></path>
                      </mask>
                    </defs>
                    <title>资源 15</title>
                    <g mask="url(#b49d072b6-2f7f-4d5a-a888-b8db43aab7de)">
                      <path d="M76.53 40.08a17 17 0 0 0-7.18-4.36 15.43 15.43 0 0 0-1.72-.42 19.58 19.58 0 0 0-3.76-.36 19 19 0 0 0-2.65.2l-.6.08a18.25 18.25 0 0 0-2.4.56l-.18.06a16.28 16.28 0 0 0-2 .84l-.5.24a18.74 18.74 0 0 0-2 1.19l-.26.21a18.06 18.06 0 0 0-1.59 1.33l-.39.36-.27.26c-.28.28-.55.57-.81.88s-.32.37-.48.57a.86.86 0 0 0-.07.1l-.34.44-.41.57c-.12.16-.23.33-.34.49l-.34.51-.12.19v.06c-.06.09-.12.18-.17.27s-.2.33-.29.5-.19.32-.28.49l-.27.49c-.09.17-.18.34-.26.51s-.07.13-.1.19v.05c-.05.09-.09.18-.13.27s-.17.34-.25.52l-.23.52c-.08.18-.15.35-.23.53l-.22.54-.12.29a.08.08 0 0 1 0 .05c0 .07 0 .15-.08.22l-.21.56-.21.57c-.07.2-.13.4-.2.59l-.2.62-.09.3v.06c0 .09-.06.18-.08.26s-.13.42-.19.63l-.18.66-.18.69c-.06.23-.12.46-.17.7a.19.19 0 0 0 0 .08v.05c-.05.19-.09.38-.14.57s-.11.5-.16.76-.11.51-.16.77l-.15.77V58.51c0 .16-.06.32-.08.47s-.1.57-.14.86-.09.57-.13.86-.09.6-.12.9a.59.59 0 0 0 0 .13v.1l-.09.71c0 .31-.07.63-.1.94s-.07.67-.1 1 0 .4-.05.6v.43c0 .34 0 .69-.07 1l-.06 1.12v9a.57.57 0 0 1 0 .13v.28c0 .37.05.75.08 1.12s0 .74.08 1.1.07.73.1 1.09.07.65.11 1c0 .34.08.69.13 1s.09.66.13 1l.15 1c.05.32.1.64.16 1 0 .15 0 .31.08.46s0 .07 0 .1 0 .24.07.36c.05.3.11.6.17.9s.13.6.2.89.13.58.2.86.13.57.21.84l.09.37v.09c0 .13.06.25.1.38s.15.54.23.81.16.54.25.8.17.53.25.79.19.53.28.79.09.26.14.38v.08l.12.32.3.77c.11.27.23.54.35.8s.23.53.35.79.26.55.4.81l.07.15a.16.16 0 0 1 0 .07l.36.68c.16.3.33.59.5.87.25.43.51.85.79 1.25.06.1.14.19.21.29l.3.4a21.8 21.8 0 0 0 2.16 2.59l18 18a21.69 21.69 0 0 1-2.35-2.5l-.3-.41a28.42 28.42 0 0 1-1.83-3.13.25.25 0 0 0 0-.07 37.67 37.67 0 0 1-1.59-3.64v-.07c-.47-1.27-.89-2.59-1.25-4v-.09c-.36-1.37-.67-2.77-.94-4.21a.3.3 0 0 0 0-.1c-.26-1.46-.48-2.94-.65-4.45-.17-1.51-.3-3-.38-4.57a.57.57 0 0 0 0-.13c-.08-1.53-.12-3.08-.12-4.62 0-1.14 0-2.27.07-3.4v-.14c0-1.1.11-2.2.2-3.29v-.13c.09-1.1.2-2.19.34-3.26v-.09c.14-1.09.3-2.17.49-3.23v-.08c.19-1.06.4-2.11.65-3.13.25-1 .52-2 .82-3v-.06q.45-1.47 1-2.85v-.06c.37-.92.76-1.81 1.18-2.66v-.06c.43-.85.88-1.66 1.37-2.44v-.07c.49-.77 1-1.5 1.55-2.19v-.06A18.85 18.85 0 0 1 69.3 58l.38-.36a16.84 16.84 0 0 1 1.6-1.33l.25-.2a17.26 17.26 0 0 1 2-1.2l.5-.24a16 16 0 0 1 2-.83l.18-.07a16.77 16.77 0 0 1 2.4-.55 6 6 0 0 1 .61-.09 18.89 18.89 0 0 1 2.67-.13 19.57 19.57 0 0 1 3.75.35 16.17 16.17 0 0 1 1.73.42 17.11 17.11 0 0 1 7.18 4.36z" fill="#4ce0c3"></path>
                      <path d="M139.66 89.84v-1.11-1.11-1.12c0-.37 0-.75-.05-1.12s-.05-.75-.08-1.13v-.41a.34.34 0 0 0 0-.1v-.61c0-.38-.07-.76-.11-1.14l-.12-1.14c0-.39-.09-.77-.14-1.15s-.1-.78-.16-1.16-.09-.6-.14-.9v-.26a49.022 49.022 0 0 0-.41-2.37L138 73.8c-.08-.4-.17-.81-.26-1.21s-.15-.67-.23-1v-.06a1 1 0 0 0 0-.17c-.1-.41-.2-.83-.31-1.24s-.22-.86-.34-1.28-.24-.86-.37-1.29-.27-.89-.41-1.33c0-.15-.1-.3-.14-.45a.88.88 0 0 1 0-.15c-.09-.25-.17-.51-.25-.76l-.48-1.37-.64-1.49c-.19-.5-.39-1-.59-1.49l-.18-.4-.07-.18c-.14-.32-.27-.65-.41-1-.24-.56-.5-1.11-.76-1.66s-.56-1.2-.86-1.78c-.12-.24-.25-.47-.37-.7l-.18-.36c-.16-.3-.31-.6-.47-.89-.41-.75-.83-1.49-1.27-2.23-.28-.46-.58-.92-.87-1.38-.14-.23-.28-.46-.43-.69l-.41-.66q-1.31-2-2.75-3.83a55.72 55.72 0 0 0-4.5-5.11l-18-18a53.3 53.3 0 0 1 4.51 5.11q1.66 2.16 3.16 4.49l.43.69q1.38 2.19 2.6 4.5l.19.35c.86 1.67 1.66 3.37 2.4 5.12 0 .06 0 .12.07.17q1.13 2.69 2 5.49v.15c.61 1.88 1.16 3.81 1.62 5.76v.06q.69 3 1.17 6v.07c.31 2 .55 4.05.71 6.11v.1q.24 3.11.24 6.26 0 3.18-.24 6.3-.24 3.12-.72 6.17c-.31 2-.71 4-1.17 6v.06q-.7 3-1.62 5.8v.09c-.62 1.89-1.31 3.75-2.06 5.56v.06q-1.14 2.73-2.49 5.32a.41.41 0 0 1-.05.09c-.9 1.73-1.87 3.42-2.91 5q-1.57 2.46-3.35 4.75c-.21.28-.47.59-.72.9s-.47.57-.72.86l-.52.62c-.43.49-.9 1-1.4 1.54l-.25.27-.27.28q-.59.6-1.23 1.23l-.55.52-1.15 1-.66.58-1.29 1.07-.67.54c-.6.47-1.24.94-1.9 1.41l-.23.17c-.74.52-1.51 1-2.32 1.54-.23.15-.49.29-.73.44-.59.36-1.18.71-1.8 1.05l-1 .5c-.6.32-1.21.62-1.84.92l-1 .47c-.72.33-1.47.63-2.22.93l-.79.32c-1 .39-2.1.75-3.21 1.09-.24.07-.5.13-.75.21q-1.31.38-2.67.69l-1.23.27c-.81.16-1.63.32-2.47.45-.45.08-.9.15-1.36.21-.88.12-1.78.21-2.7.3L68 138c-1.35.09-2.73.15-4.16.15a59.74 59.74 0 0 1-10.14-.85 52.51 52.51 0 0 1-16.14-5.56q-2.25-1.22-4.2-2.54c-1.31-.87-2.53-1.77-3.65-2.67s-2.15-1.8-3.1-2.68c-.47-.44-.92-.87-1.34-1.3l18 18c.42.43.87.86 1.35 1.3.94.88 2 1.78 3.09 2.68s2.34 1.8 3.65 2.67 2.7 1.73 4.2 2.54a52.6 52.6 0 0 0 16.14 5.56 59.77 59.77 0 0 0 10.15.85c1.42 0 2.8-.06 4.15-.15l1.27-.11q1.38-.12 2.7-.3c.46-.06.91-.13 1.36-.21.84-.13 1.66-.28 2.47-.45l1.23-.26c.91-.22 1.8-.45 2.67-.7l.76-.21c1.1-.34 2.17-.7 3.2-1.09l.78-.31c.76-.3 1.51-.61 2.23-.94.35-.15.67-.31 1-.47.63-.3 1.24-.6 1.84-.92l1-.5q.93-.51 1.8-1c.25-.15.5-.29.73-.44.81-.5 1.59-1 2.33-1.54l.21-.15c.67-.48 1.3-1 1.92-1.43l.66-.53c.44-.37.88-.72 1.3-1.08l.65-.58c.4-.35.79-.71 1.16-1.06l.54-.51c.44-.42.85-.84 1.24-1.24l.26-.26.21-.24c.5-.53 1-1 1.39-1.53l.17-.18c.13-.16.23-.29.36-.43.25-.3.49-.59.71-.87a2.41 2.41 0 0 0 .21-.24l.52-.66.57-.74c.36-.48.71-1 1.06-1.45s.63-.9.93-1.36.53-.8.79-1.2l.78-1.25.71-1.2.66-1.17c.21-.38.42-.77.62-1.16l.12-.22v-.09l.42-.81.55-1.11.51-1.09c.17-.36.33-.72.49-1.09s.31-.71.46-1.06l.06-.15v-.07c.12-.28.24-.57.35-.85s.28-.7.41-1 .27-.7.4-1.06.25-.69.37-1l.36-1c.06-.17.11-.35.17-.52v-.09c0-.14.09-.29.14-.43.11-.34.21-.69.32-1l.3-1c.1-.34.19-.68.29-1l.27-1c.09-.35.17-.69.25-1a1.6 1.6 0 0 0 .05-.21v-.06l.18-.76c.07-.35.15-.69.22-1s.15-.69.21-1 .14-.69.2-1 .13-.69.19-1 .11-.69.17-1v-.08c.05-.32.1-.64.14-1l.15-1.05c0-.35.09-.7.13-1s.08-.71.11-1.06.07-.7.11-1.06 0-.66.08-1v-.08c0-.35.06-.71.08-1.07l.06-1.07c0-.36 0-.73.05-1.09v-1.09V90.78z" fill="#37db5a"></path>
                    </g>
                    <path d="M100.86 20.71C96 14.4 82.55 0 57.8 0S19.61 14.4 14.72 20.71C5.22 33 0 49.06 0 66s5.22 33.08 14.72 45.34c4.89 6.31 18.31 20.71 43.08 20.71s38.17-14.4 43.06-20.71C110.36 99.11 115.58 83 115.58 66s-5.22-33-14.72-45.29zM57.8 103.18c-16.52 0-22.07-18.69-22.07-37.15s5.55-37.16 22.07-37.16 22 18.72 22 37.16-5.5 37.15-22 37.15z" fill="#333"></path>
                  </svg>
                </svg>
                <!---->
              </g>
            </g>
          </g>
          <g transform="translate(173.164628322933, 0)">
            <g class="name-imagesvg">
              <g>
                <rect fill="#333" fill-opacity="0" stroke-width="2" x="0" y="0" width="33.45439715038492" height="37.40445600910717" class="image-rect"></rect>
                <svg x="0" y="0" width="33.45439715038492" height="37.40445600910717" filtersec="colorsb6071884356" class="image-svg-svg primary" style="overflow: visible;">
                  <svg xmlns="http://www.w3.org/2000/svg" viewBox="0 0 139.66 156.16">
                    <defs>
                      <filter id="a30bf86f4-3274-46f5-a591-cd790e7d9035" x="6.07" y="6.07" width="133.59" height="150.09" filterUnits="userSpaceOnUse" color-interpolation-filters="sRGB">
                        <feFlood flood-color="#fff" result="bg"></feFlood>
                        <feBlend in="SourceGraphic" in2="bg"></feBlend>
                      </filter>
                      <mask id="b49d072b6-2f7f-4d5a-a888-b8db43aab7de" x="6.07" y="6.07" width="133.59" height="150.09" maskUnits="userSpaceOnUse">
                        <path d="M106.93 26.78C102 20.47 88.62 6.07 63.88 6.07s-38.19 14.4-43.09 20.71C11.29 39 6.07 55.13 6.07 72.1s5.22 33.08 14.72 45.34c4.89 6.31 18.31 20.71 43.08 20.71s38.17-14.4 43.06-20.71c9.5-12.26 14.72-28.38 14.72-45.34s-5.22-33.1-14.72-45.32zm-43.06 82.47c-16.52 0-22.07-18.69-22.07-37.15s5.55-37.16 22.07-37.16S85.92 53.66 85.92 72.1s-5.55 37.15-22.05 37.15z" filter="url(#a30bf86f4-3274-46f5-a591-cd790e7d9035)" fill="#000000"></path>
                      </mask>
                    </defs>
                    <title>资源 15</title>
                    <g mask="url(#b49d072b6-2f7f-4d5a-a888-b8db43aab7de)">
                      <path d="M76.53 40.08a17 17 0 0 0-7.18-4.36 15.43 15.43 0 0 0-1.72-.42 19.58 19.58 0 0 0-3.76-.36 19 19 0 0 0-2.65.2l-.6.08a18.25 18.25 0 0 0-2.4.56l-.18.06a16.28 16.28 0 0 0-2 .84l-.5.24a18.74 18.74 0 0 0-2 1.19l-.26.21a18.06 18.06 0 0 0-1.59 1.33l-.39.36-.27.26c-.28.28-.55.57-.81.88s-.32.37-.48.57a.86.86 0 0 0-.07.1l-.34.44-.41.57c-.12.16-.23.33-.34.49l-.34.51-.12.19v.06c-.06.09-.12.18-.17.27s-.2.33-.29.5-.19.32-.28.49l-.27.49c-.09.17-.18.34-.26.51s-.07.13-.1.19v.05c-.05.09-.09.18-.13.27s-.17.34-.25.52l-.23.52c-.08.18-.15.35-.23.53l-.22.54-.12.29a.08.08 0 0 1 0 .05c0 .07 0 .15-.08.22l-.21.56-.21.57c-.07.2-.13.4-.2.59l-.2.62-.09.3v.06c0 .09-.06.18-.08.26s-.13.42-.19.63l-.18.66-.18.69c-.06.23-.12.46-.17.7a.19.19 0 0 0 0 .08v.05c-.05.19-.09.38-.14.57s-.11.5-.16.76-.11.51-.16.77l-.15.77V58.51c0 .16-.06.32-.08.47s-.1.57-.14.86-.09.57-.13.86-.09.6-.12.9a.59.59 0 0 0 0 .13v.1l-.09.71c0 .31-.07.63-.1.94s-.07.67-.1 1 0 .4-.05.6v.43c0 .34 0 .69-.07 1l-.06 1.12v9a.57.57 0 0 1 0 .13v.28c0 .37.05.75.08 1.12s0 .74.08 1.1.07.73.1 1.09.07.65.11 1c0 .34.08.69.13 1s.09.66.13 1l.15 1c.05.32.1.64.16 1 0 .15 0 .31.08.46s0 .07 0 .1 0 .24.07.36c.05.3.11.6.17.9s.13.6.2.89.13.58.2.86.13.57.21.84l.09.37v.09c0 .13.06.25.1.38s.15.54.23.81.16.54.25.8.17.53.25.79.19.53.28.79.09.26.14.38v.08l.12.32.3.77c.11.27.23.54.35.8s.23.53.35.79.26.55.4.81l.07.15a.16.16 0 0 1 0 .07l.36.68c.16.3.33.59.5.87.25.43.51.85.79 1.25.06.1.14.19.21.29l.3.4a21.8 21.8 0 0 0 2.16 2.59l18 18a21.69 21.69 0 0 1-2.35-2.5l-.3-.41a28.42 28.42 0 0 1-1.83-3.13.25.25 0 0 0 0-.07 37.67 37.67 0 0 1-1.59-3.64v-.07c-.47-1.27-.89-2.59-1.25-4v-.09c-.36-1.37-.67-2.77-.94-4.21a.3.3 0 0 0 0-.1c-.26-1.46-.48-2.94-.65-4.45-.17-1.51-.3-3-.38-4.57a.57.57 0 0 0 0-.13c-.08-1.53-.12-3.08-.12-4.62 0-1.14 0-2.27.07-3.4v-.14c0-1.1.11-2.2.2-3.29v-.13c.09-1.1.2-2.19.34-3.26v-.09c.14-1.09.3-2.17.49-3.23v-.08c.19-1.06.4-2.11.65-3.13.25-1 .52-2 .82-3v-.06q.45-1.47 1-2.85v-.06c.37-.92.76-1.81 1.18-2.66v-.06c.43-.85.88-1.66 1.37-2.44v-.07c.49-.77 1-1.5 1.55-2.19v-.06A18.85 18.85 0 0 1 69.3 58l.38-.36a16.84 16.84 0 0 1 1.6-1.33l.25-.2a17.26 17.26 0 0 1 2-1.2l.5-.24a16 16 0 0 1 2-.83l.18-.07a16.77 16.77 0 0 1 2.4-.55 6 6 0 0 1 .61-.09 18.89 18.89 0 0 1 2.67-.13 19.57 19.57 0 0 1 3.75.35 16.17 16.17 0 0 1 1.73.42 17.11 17.11 0 0 1 7.18 4.36z" fill="#4ce0c3"></path>
                      <path d="M139.66 89.84v-1.11-1.11-1.12c0-.37 0-.75-.05-1.12s-.05-.75-.08-1.13v-.41a.34.34 0 0 0 0-.1v-.61c0-.38-.07-.76-.11-1.14l-.12-1.14c0-.39-.09-.77-.14-1.15s-.1-.78-.16-1.16-.09-.6-.14-.9v-.26a49.022 49.022 0 0 0-.41-2.37L138 73.8c-.08-.4-.17-.81-.26-1.21s-.15-.67-.23-1v-.06a1 1 0 0 0 0-.17c-.1-.41-.2-.83-.31-1.24s-.22-.86-.34-1.28-.24-.86-.37-1.29-.27-.89-.41-1.33c0-.15-.1-.3-.14-.45a.88.88 0 0 1 0-.15c-.09-.25-.17-.51-.25-.76l-.48-1.37-.64-1.49c-.19-.5-.39-1-.59-1.49l-.18-.4-.07-.18c-.14-.32-.27-.65-.41-1-.24-.56-.5-1.11-.76-1.66s-.56-1.2-.86-1.78c-.12-.24-.25-.47-.37-.7l-.18-.36c-.16-.3-.31-.6-.47-.89-.41-.75-.83-1.49-1.27-2.23-.28-.46-.58-.92-.87-1.38-.14-.23-.28-.46-.43-.69l-.41-.66q-1.31-2-2.75-3.83a55.72 55.72 0 0 0-4.5-5.11l-18-18a53.3 53.3 0 0 1 4.51 5.11q1.66 2.16 3.16 4.49l.43.69q1.38 2.19 2.6 4.5l.19.35c.86 1.67 1.66 3.37 2.4 5.12 0 .06 0 .12.07.17q1.13 2.69 2 5.49v.15c.61 1.88 1.16 3.81 1.62 5.76v.06q.69 3 1.17 6v.07c.31 2 .55 4.05.71 6.11v.1q.24 3.11.24 6.26 0 3.18-.24 6.3-.24 3.12-.72 6.17c-.31 2-.71 4-1.17 6v.06q-.7 3-1.62 5.8v.09c-.62 1.89-1.31 3.75-2.06 5.56v.06q-1.14 2.73-2.49 5.32a.41.41 0 0 1-.05.09c-.9 1.73-1.87 3.42-2.91 5q-1.57 2.46-3.35 4.75c-.21.28-.47.59-.72.9s-.47.57-.72.86l-.52.62c-.43.49-.9 1-1.4 1.54l-.25.27-.27.28q-.59.6-1.23 1.23l-.55.52-1.15 1-.66.58-1.29 1.07-.67.54c-.6.47-1.24.94-1.9 1.41l-.23.17c-.74.52-1.51 1-2.32 1.54-.23.15-.49.29-.73.44-.59.36-1.18.71-1.8 1.05l-1 .5c-.6.32-1.21.62-1.84.92l-1 .47c-.72.33-1.47.63-2.22.93l-.79.32c-1 .39-2.1.75-3.21 1.09-.24.07-.5.13-.75.21q-1.31.38-2.67.69l-1.23.27c-.81.16-1.63.32-2.47.45-.45.08-.9.15-1.36.21-.88.12-1.78.21-2.7.3L68 138c-1.35.09-2.73.15-4.16.15a59.74 59.74 0 0 1-10.14-.85 52.51 52.51 0 0 1-16.14-5.56q-2.25-1.22-4.2-2.54c-1.31-.87-2.53-1.77-3.65-2.67s-2.15-1.8-3.1-2.68c-.47-.44-.92-.87-1.34-1.3l18 18c.42.43.87.86 1.35 1.3.94.88 2 1.78 3.09 2.68s2.34 1.8 3.65 2.67 2.7 1.73 4.2 2.54a52.6 52.6 0 0 0 16.14 5.56 59.77 59.77 0 0 0 10.15.85c1.42 0 2.8-.06 4.15-.15l1.27-.11q1.38-.12 2.7-.3c.46-.06.91-.13 1.36-.21.84-.13 1.66-.28 2.47-.45l1.23-.26c.91-.22 1.8-.45 2.67-.7l.76-.21c1.1-.34 2.17-.7 3.2-1.09l.78-.31c.76-.3 1.51-.61 2.23-.94.35-.15.67-.31 1-.47.63-.3 1.24-.6 1.84-.92l1-.5q.93-.51 1.8-1c.25-.15.5-.29.73-.44.81-.5 1.59-1 2.33-1.54l.21-.15c.67-.48 1.3-1 1.92-1.43l.66-.53c.44-.37.88-.72 1.3-1.08l.65-.58c.4-.35.79-.71 1.16-1.06l.54-.51c.44-.42.85-.84 1.24-1.24l.26-.26.21-.24c.5-.53 1-1 1.39-1.53l.17-.18c.13-.16.23-.29.36-.43.25-.3.49-.59.71-.87a2.41 2.41 0 0 0 .21-.24l.52-.66.57-.74c.36-.48.71-1 1.06-1.45s.63-.9.93-1.36.53-.8.79-1.2l.78-1.25.71-1.2.66-1.17c.21-.38.42-.77.62-1.16l.12-.22v-.09l.42-.81.55-1.11.51-1.09c.17-.36.33-.72.49-1.09s.31-.71.46-1.06l.06-.15v-.07c.12-.28.24-.57.35-.85s.28-.7.41-1 .27-.7.4-1.06.25-.69.37-1l.36-1c.06-.17.11-.35.17-.52v-.09c0-.14.09-.29.14-.43.11-.34.21-.69.32-1l.3-1c.1-.34.19-.68.29-1l.27-1c.09-.35.17-.69.25-1a1.6 1.6 0 0 0 .05-.21v-.06l.18-.76c.07-.35.15-.69.22-1s.15-.69.21-1 .14-.69.2-1 .13-.69.19-1 .11-.69.17-1v-.08c.05-.32.1-.64.14-1l.15-1.05c0-.35.09-.7.13-1s.08-.71.11-1.06.07-.7.11-1.06 0-.66.08-1v-.08c0-.35.06-.71.08-1.07l.06-1.07c0-.36 0-.73.05-1.09v-1.09V90.78z" fill="#37db5a"></path>
                    </g>
                    <path d="M100.86 20.71C96 14.4 82.55 0 57.8 0S19.61 14.4 14.72 20.71C5.22 33 0 49.06 0 66s5.22 33.08 14.72 45.34c4.89 6.31 18.31 20.71 43.08 20.71s38.17-14.4 43.06-20.71C110.36 99.11 115.58 83 115.58 66s-5.22-33-14.72-45.29zM57.8 103.18c-16.52 0-22.07-18.69-22.07-37.15s5.55-37.16 22.07-37.16 22 18.72 22 37.16-5.5 37.15-22 37.15z" fill="#333"></path>
                  </svg>
                </svg>
                <!---->
              </g>
            </g>
          </g>
          <g transform="translate(206.61902547331792, 0)">
            <g class="name-imagesvg">
              <g>
                <rect fill="#333" fill-opacity="0" stroke-width="2" x="0" y="0" width="29.316676990707677" height="37.40445600910717" class="image-rect"></rect>
                <svg x="0" y="0" width="29.316676990707677" height="37.40445600910717" filtersec="colorsb547554738" class="image-svg-svg primary" style="overflow: visible;">
                  <svg xmlns="http://www.w3.org/2000/svg" viewBox="0 0 120.38 153.59">
                    <defs>
                      <filter id="ae4db8b5e-bd85-475c-aa14-f98a974906b1" x="6.07" y="6.07" width="114.31" height="147.52" filterUnits="userSpaceOnUse" color-interpolation-filters="sRGB">
                        <feFlood flood-color="#fff" result="bg"></feFlood>
                        <feBlend in="SourceGraphic" in2="bg"></feBlend>
                      </filter>
                      <mask id="b76199072-0ca0-4f90-abad-eeccf7efcd0e" x="6.07" y="6.07" width="114.31" height="147.52" maskUnits="userSpaceOnUse">
                        <path filter="url(#ae4db8b5e-bd85-475c-aa14-f98a974906b1)" d="M102.37 6.07H66.8L36.42 53.96V6.07H6.07v129.51h30.35V87.72l30.38 47.86h35.56L61.31 70.84l41.06-64.77z" fill="#000000"></path>
                      </mask>
                    </defs>
                    <title>资源 11</title>
                    <g mask="url(#b76199072-0ca0-4f90-abad-eeccf7efcd0e)">
                      <path fill="#ff5e5e" d="M36.42 135.58H6.07l18.01 18.01h30.35v-47.86L36.42 87.72v47.86z"></path>
                      <path fill="#fb0" d="M120.38 24.08L102.37 6.07 61.31 70.84l41.05 64.74H66.8l18.01 18.01h35.57L79.32 88.85l41.06-64.77z"></path>
                      <path fill="#ff5e5e" d="M36.42 53.96l18.01 18.01V24.08L36.42 6.07v47.89z"></path>
                    </g>
                    <path fill="#333" d="M96.3 0H60.73L30.35 47.89V0H0v129.51h30.35V81.65l30.38 47.86h35.56L55.24 64.77 96.3 0z"></path>
                  </svg>
                </svg>
                <!---->
              </g>
            </g>
          </g>
        </g>
      </g>
    </g>
    <g data-gra="path-slogan" fill-rule="" class="tp-slogan" fill="#333" transform="translate(77.98785018920898,43.40446853637695)">
      <!---->
      <!---->
      <g transform="scale(1, 1)">
        <g transform="scale(1)">
          <path d="M1.08-7.87L1.08 0L2.08 0L2.08-3.12L3.49-3.12C3.92-3.12 4.32-3.17 4.67-3.27C5.03-3.37 5.34-3.52 5.59-3.72C5.85-3.92 6.05-4.17 6.19-4.48C6.33-4.78 6.40-5.14 6.40-5.56C6.40-5.99 6.33-6.35 6.19-6.65C6.05-6.94 5.85-7.18 5.60-7.36C5.35-7.54 5.04-7.67 4.68-7.75C4.32-7.83 3.92-7.87 3.49-7.87ZM3.37-3.94L2.08-3.94L2.08-7.07L3.37-7.07C4.05-7.07 4.56-6.96 4.90-6.74C5.23-6.52 5.40-6.12 5.40-5.56C5.40-5.00 5.23-4.59 4.90-4.33C4.57-4.07 4.06-3.94 3.37-3.94ZM10.74-3.20L8.38-3.20L8.75-4.40C8.89-4.84 9.03-5.28 9.16-5.72C9.28-6.15 9.41-6.60 9.53-7.06L9.58-7.06C9.70-6.60 9.83-6.15 9.96-5.72C10.09-5.28 10.22-4.84 10.37-4.40ZM10.99-2.40L11.74 0L12.80 0L10.14-7.87L9.01-7.87L6.35 0L7.37 0L8.12-2.40ZM13.34-3.94C13.34-3.30 13.43-2.72 13.60-2.21C13.77-1.71 14.01-1.28 14.32-0.93C14.63-0.58 14.99-0.32 15.41-0.13C15.83 0.05 16.29 0.14 16.79 0.14C17.29 0.14 17.74 0.04 18.13-0.16C18.52-0.36 18.88-0.64 19.19-1.00L18.62-1.61C18.37-1.33 18.10-1.11 17.81-0.96C17.53-0.81 17.20-0.73 16.81-0.73C16.44-0.73 16.10-0.81 15.80-0.96C15.50-1.11 15.24-1.33 15.04-1.61C14.83-1.89 14.67-2.23 14.55-2.62C14.43-3.02 14.38-3.46 14.38-3.96C14.38-4.45 14.44-4.89 14.56-5.28C14.68-5.67 14.84-6.01 15.06-6.28C15.28-6.56 15.54-6.77 15.84-6.92C16.14-7.07 16.48-7.14 16.86-7.14C17.20-7.14 17.49-7.07 17.74-6.94C17.99-6.81 18.22-6.63 18.43-6.41L19.00-7.04C18.76-7.30 18.47-7.53 18.11-7.72C17.75-7.92 17.33-8.02 16.85-8.02C16.34-8.02 15.88-7.92 15.45-7.73C15.02-7.55 14.65-7.28 14.34-6.92C14.03-6.57 13.78-6.14 13.61-5.64C13.43-5.14 13.34-4.57 13.34-3.94ZM20.65-7.87L20.65 0L21.65 0L21.65-2.50L23.00-4.09L25.36 0L26.47 0L23.63-4.87L26.09-7.87L24.96-7.87L21.68-3.92L21.65-3.92L21.65-7.87ZM32.93 0.14C33.42 0.14 33.88 0.05 34.29-0.14C34.70-0.34 35.06-0.61 35.36-0.97C35.66-1.32 35.89-1.75 36.05-2.26C36.22-2.77 36.30-3.34 36.30-3.97C36.30-4.60 36.22-5.16 36.05-5.66C35.89-6.16 35.66-6.58 35.36-6.93C35.06-7.28 34.70-7.55 34.29-7.73C33.88-7.92 33.42-8.02 32.93-8.02C32.43-8.02 31.98-7.92 31.57-7.74C31.15-7.56 30.80-7.29 30.50-6.94C30.21-6.59 29.98-6.17 29.81-5.67C29.65-5.17 29.57-4.60 29.57-3.97C29.57-3.34 29.65-2.77 29.81-2.26C29.98-1.75 30.21-1.32 30.50-0.97C30.80-0.61 31.15-0.34 31.57-0.14C31.98 0.05 32.43 0.14 32.93 0.14ZM32.93-0.73C32.58-0.73 32.26-0.81 31.97-0.96C31.69-1.11 31.45-1.33 31.24-1.61C31.04-1.90 30.88-2.24 30.77-2.63C30.66-3.03 30.60-3.48 30.60-3.97C30.60-4.46 30.66-4.90 30.77-5.29C30.88-5.68 31.04-6.02 31.24-6.29C31.45-6.56 31.69-6.77 31.97-6.92C32.26-7.07 32.58-7.14 32.93-7.14C33.28-7.14 33.60-7.07 33.88-6.92C34.17-6.77 34.41-6.56 34.61-6.29C34.82-6.02 34.98-5.68 35.09-5.29C35.20-4.90 35.26-4.46 35.26-3.97C35.26-3.48 35.20-3.03 35.09-2.63C34.98-2.24 34.82-1.90 34.61-1.61C34.41-1.33 34.17-1.11 33.88-0.96C33.60-0.81 33.28-0.73 32.93-0.73ZM37.99-7.87L37.99 0L38.94 0L38.94-4.12C38.94-4.53 38.93-4.95 38.90-5.36C38.87-5.77 38.84-6.18 38.81-6.58L38.86-6.58L39.71-4.96L42.56 0L43.60 0L43.60-7.87L42.65-7.87L42.65-3.80C42.65-3.39 42.66-2.97 42.69-2.54C42.72-2.11 42.74-1.70 42.77-1.30L42.72-1.30L41.87-2.93L39.02-7.87ZM45.76-7.87L45.76 0L50.41 0L50.41-0.85L46.75-0.85L46.75-3.71L49.74-3.71L49.74-4.56L46.75-4.56L46.75-7.03L50.29-7.03L50.29-7.87ZM54.77-2.10C54.77-2.40 54.86-2.68 55.05-2.92C55.24-3.17 55.47-3.40 55.75-3.62C56.03-3.20 56.35-2.79 56.71-2.39C57.06-1.99 57.43-1.62 57.82-1.28C57.58-1.08 57.34-0.93 57.10-0.82C56.85-0.70 56.59-0.65 56.32-0.65C56.10-0.65 55.90-0.68 55.71-0.75C55.52-0.82 55.36-0.92 55.22-1.04C55.08-1.17 54.97-1.33 54.89-1.51C54.81-1.69 54.77-1.88 54.77-2.10ZM55.69-6.17C55.69-6.50 55.78-6.77 55.96-6.98C56.13-7.20 56.37-7.31 56.66-7.31C56.93-7.31 57.12-7.22 57.23-7.05C57.35-6.88 57.41-6.68 57.41-6.44C57.41-6.27 57.37-6.11 57.30-5.96C57.23-5.81 57.13-5.67 57.01-5.54C56.88-5.41 56.74-5.28 56.57-5.15C56.41-5.03 56.24-4.91 56.06-4.79C55.95-5.03 55.86-5.26 55.79-5.50C55.73-5.73 55.69-5.95 55.69-6.17ZM60.29 0.14L60.55-0.67C60.34-0.74 60.10-0.83 59.86-0.96C59.61-1.09 59.35-1.24 59.08-1.43C59.39-1.84 59.66-2.29 59.88-2.76C60.10-3.23 60.30-3.73 60.46-4.25L59.53-4.25C59.41-3.79 59.26-3.37 59.07-2.99C58.88-2.60 58.67-2.25 58.43-1.92C58.05-2.23 57.69-2.58 57.34-2.95C56.99-3.33 56.69-3.72 56.44-4.13C56.65-4.29 56.87-4.45 57.08-4.61C57.29-4.78 57.48-4.95 57.65-5.14C57.82-5.33 57.95-5.53 58.06-5.75C58.16-5.96 58.21-6.20 58.21-6.46C58.21-6.92 58.08-7.30 57.80-7.58C57.53-7.87 57.15-8.02 56.66-8.02C56.39-8.02 56.14-7.97 55.92-7.87C55.70-7.78 55.50-7.64 55.34-7.48C55.18-7.31 55.06-7.11 54.97-6.89C54.88-6.66 54.84-6.42 54.84-6.16C54.84-5.87 54.89-5.57 54.98-5.26C55.07-4.95 55.20-4.64 55.36-4.31C55.16-4.17 54.96-4.03 54.77-3.87C54.59-3.71 54.42-3.54 54.28-3.36C54.13-3.18 54.02-2.98 53.93-2.76C53.85-2.54 53.81-2.30 53.81-2.04C53.81-1.72 53.87-1.43 53.98-1.16C54.10-0.89 54.26-0.66 54.47-0.47C54.69-0.28 54.94-0.13 55.23-0.02C55.52 0.09 55.85 0.14 56.21 0.14C56.67 0.14 57.09 0.06 57.46-0.10C57.83-0.27 58.17-0.48 58.48-0.76C58.80-0.53 59.11-0.35 59.41-0.20C59.72-0.05 60.01 0.06 60.29 0.14ZM67.58-3.20L65.22-3.20L65.59-4.40C65.74-4.84 65.87-5.28 66-5.72C66.13-6.15 66.25-6.60 66.37-7.06L66.42-7.06C66.55-6.60 66.68-6.15 66.80-5.72C66.93-5.28 67.07-4.84 67.21-4.40ZM67.84-2.40L68.58 0L69.65 0L66.98-7.87L65.86-7.87L63.19 0L64.21 0L64.97-2.40ZM70.76-7.87L70.76 0L75.20 0L75.20-0.85L71.76-0.85L71.76-7.87ZM76.60-7.87L76.60 0L81.04 0L81.04-0.85L77.59-0.85L77.59-7.87Z" transform="translate(-1.08, 8.016)"></path>
        </g>
      </g>
    </g>
  </g>
  <defs v-gra="od"></defs>
</svg>